# xmcd
#
# Track frame offsets:
#	150
#	12398
#	26308
#	36433
#	48993
#	58088
#	67890
#	81935
#	97073
#	119035
#
# Disc length: 1783 seconds
#
# Revision: 0
# Processed by: cddbd v1.5.2PL0 Copyright (c) Steve Scherf et al.
# Submitted via: EasyCDDAExtractor 10.0.6.1
#
DISCID=8606f50a
DTITLE=Various Artist - Harvest CD Vol.31991
DYEAR=1991
DGENRE=Gospel
TTITLE0=Stewards - Above And Beyond
TTITLE1=Carroll Roberson - I've Got The Lord
TTITLE2=Joyful Sounds - Full Coverage
TTITLE3=Gina Vera - I Know For Myself
TTITLE4=Cornetts - Coming With Power
TTITLE5=Counsellors Quartet - Mountain Mover
TTITLE6=Pitneys - A Mother's Prayer
TTITLE7=Debbiy Derby Band - Hand Of The Shepherd
TTITLE8=Thomas' - Oh What A Savio Is Mine
TTITLE9=Telestrials - Help Wanted
EXTD=
EXTT0=
EXTT1=
EXTT2=
EXTT3=
EXTT4=
EXTT5=
EXTT6=
EXTT7=
EXTT8=
EXTT9=
PLAYORDER=
